<?xml version="1.0" standalone="no"?>
<!DOCTYPE svg PUBLIC "-//W3C//DTD SVG 20010904//EN"
 "http://www.w3.org/TR/2001/REC-SVG-20010904/DTD/svg10.dtd">
<svg version="1.0" xmlns="http://www.w3.org/2000/svg"
 width="2024.000000pt" height="2024.000000pt" viewBox="0 0 2024.000000 2024.000000"
 preserveAspectRatio="xMidYMid meet">
<metadata>
Created by potrace 1.16, written by Peter Selinger 2001-2019
</metadata>
<g transform="translate(0.000000,2024.000000) scale(0.100000,-0.100000)"
fill="#000000" stroke="none">
<path d="M9161 17933 c-23 -5 -24 -7 -18 -71 15 -159 87 -343 172 -439 25 -29
75 -71 110 -95 35 -23 62 -45 60 -48 -2 -4 -52 -10 -110 -14 -153 -10 -502
-50 -700 -81 -398 -62 -749 -147 -1120 -270 -711 -236 -1287 -553 -1845 -1015
-148 -122 -491 -463 -609 -605 -291 -349 -514 -694 -730 -1125 -277 -555 -477
-1121 -676 -1920 -136 -545 -240 -846 -434 -1255 -33 -70 -58 -132 -55 -137
14 -22 185 29 283 85 30 17 87 61 126 99 l72 68 6 -248 c3 -136 13 -305 22
-377 78 -641 272 -1243 619 -1920 116 -227 279 -513 337 -595 22 -30 47 -68
57 -83 93 -153 214 -328 225 -324 6 2 11 9 10 15 -7 34 -13 725 -6 765 l8 49
81 -104 c135 -171 524 -600 524 -577 0 17 -176 575 -230 732 l-52 148 53 106
c30 59 80 146 112 195 56 85 230 278 269 299 18 10 58 -15 180 -111 4 -3 -4
-40 -17 -83 -74 -231 -74 -558 -1 -792 l22 -70 225 -3 225 -2 41 40 c71 69
105 39 37 -31 -20 -20 -41 -48 -48 -61 -12 -23 -13 -23 -216 -26 -112 -1 -209
-7 -214 -12 -11 -11 50 -123 110 -201 88 -114 194 -192 345 -253 116 -48 220
-67 385 -73 350 -13 608 89 758 301 38 53 106 176 106 190 0 3 -73 7 -161 8
-141 3 -163 5 -173 21 -8 12 -8 22 0 35 10 15 34 18 190 22 l178 5 22 91 c55
229 56 483 5 685 l-17 66 116 -117 c168 -170 380 -328 626 -465 104 -58 144
-75 144 -60 0 3 -37 54 -81 113 -151 199 -441 653 -427 667 4 5 161 -96 190
-122 25 -22 23 -7 -12 89 -16 45 -30 83 -30 85 0 2 35 -25 78 -60 313 -259
642 -433 1112 -587 113 -38 267 -83 342 -100 l137 -33 88 83 c277 262 572 613
776 923 74 112 184 298 208 351 12 26 16 27 58 21 26 -4 67 -11 93 -17 l47 -9
-84 -83 c-97 -96 -184 -224 -231 -341 -47 -114 -114 -371 -86 -329 20 31 469
270 634 338 137 56 136 56 85 -7 -170 -209 -257 -542 -235 -902 7 -127 28
-229 69 -335 l29 -75 380 3 c285 3 385 0 396 -8 19 -16 18 -45 -2 -65 -15 -14
-47 -16 -278 -14 -143 2 -303 2 -354 1 l-93 -2 32 -47 c48 -71 166 -190 233
-235 95 -65 211 -115 326 -138 177 -37 414 -19 606 45 85 29 218 93 284 138
75 51 180 158 231 235 42 64 109 212 109 242 0 6 -62 10 -178 10 -144 0 -182
3 -200 16 -29 20 -28 40 3 60 20 13 52 15 212 12 l188 -3 13 75 c19 109 10
408 -16 520 -25 104 -73 237 -107 296 -26 45 -38 53 -51 33 -16 -26 -90 -49
-161 -49 -69 0 -73 -1 -85 -27 -13 -28 -101 -83 -113 -71 -3 3 39 62 95 129
56 68 145 181 197 252 53 70 99 127 104 127 19 0 44 -98 43 -172 l-1 -76 51
-28 c151 -81 323 -217 431 -340 70 -81 179 -229 222 -302 l22 -37 -170 -465
c-93 -256 -169 -469 -169 -475 0 -5 8 1 17 15 8 14 58 61 110 105 52 44 198
186 324 315 l229 234 0 -69 c0 -109 -19 -337 -40 -480 -34 -241 -84 -431 -180
-697 -28 -75 -50 -139 -50 -142 0 -20 43 7 166 105 342 274 592 542 811 871
190 286 326 655 429 1158 l33 165 -5 -200 c-9 -412 -9 -640 1 -644 6 -1 19 21
29 50 10 30 39 104 62 166 96 250 243 701 283 873 11 47 36 132 55 190 66 197
155 708 191 1089 83 896 -6 1846 -252 2671 -162 545 -384 1027 -704 1524 -32
50 -57 92 -55 93 1 1 29 -2 62 -7 64 -11 291 -12 338 -1 16 3 31 11 33 18 2 6
-34 53 -80 105 -46 51 -173 199 -282 328 -377 445 -631 681 -1002 929 -827
553 -1955 873 -3263 926 -80 3 -191 8 -248 11 l-102 6 68 63 c91 85 124 154
130 277 5 107 -5 214 -23 231 -10 10 -32 11 -96 5 -243 -23 -405 -89 -575
-235 l-69 -60 -25 40 c-14 23 -63 80 -110 127 -135 136 -251 181 -465 178 -60
0 -121 -3 -134 -5z m5701 -3749 c64 -75 198 -284 198 -309 0 -6 -34 -34 -74
-63 l-75 -51 -67 87 c-123 159 -225 306 -222 320 2 8 28 28 58 45 30 16 64 36
75 43 11 8 24 13 30 11 5 -2 40 -39 77 -83z m-10428 -16 c-4 -12 -29 -67 -55
-122 -27 -54 -49 -108 -49 -118 0 -11 -5 -29 -11 -40 -7 -14 -8 -23 -1 -30 14
-14 -6 -58 -27 -58 -9 0 -32 -22 -51 -49 -19 -27 -36 -48 -38 -47 -9 10 216
486 230 486 5 0 6 -10 2 -22z m10184 -39 c74 -86 252 -363 252 -391 0 -3 -15
-15 -33 -26 -19 -11 -45 -27 -59 -36 l-26 -17 -90 104 c-50 56 -124 148 -165
202 -70 92 -74 100 -57 112 17 12 141 81 148 82 2 1 15 -13 30 -30z m-9539
-394 c72 -38 130 -74 130 -80 1 -5 -26 -55 -59 -109 -33 -55 -60 -109 -60
-121 0 -12 -3 -25 -7 -29 -5 -4 -8 -20 -8 -34 0 -21 -5 -27 -20 -25 -22 1 -56
-43 -120 -155 -20 -35 -43 -66 -50 -68 -11 -5 -207 94 -227 114 -4 4 11 64 33
132 53 159 69 198 95 230 11 14 47 69 79 123 32 54 64 97 71 95 7 -2 71 -34
143 -73z m8828 3 c135 -126 178 -175 262 -298 l52 -75 -73 -33 -73 -33 -23 28
c-18 23 -279 355 -315 401 -7 9 5 18 44 36 30 14 58 25 62 25 5 1 34 -23 64
-51z m-173 -113 c97 -86 296 -314 296 -338 0 -7 -204 -107 -218 -107 -5 0 -19
12 -33 26 -13 15 -60 57 -104 94 -68 57 -88 81 -131 161 -29 52 -61 110 -73
130 l-21 35 88 37 c48 19 93 36 99 36 7 1 51 -33 97 -74z m-843 -252 c35 -38
99 -118 99 -124 0 -2 -87 -3 -192 -1 -192 3 -193 3 -215 28 -13 14 -23 29 -23
33 0 8 257 97 285 100 6 1 27 -16 46 -36z m-7008 -8 c42 -16 77 -33 77 -37 0
-13 -121 -253 -133 -264 -7 -6 -39 -17 -72 -24 -49 -10 -213 -59 -262 -77 -7
-3 6 35 27 84 22 48 35 90 30 91 -17 6 -11 22 8 23 9 0 44 32 77 71 100 120
148 169 159 166 6 -2 46 -16 89 -33z m342 -124 c55 -18 101 -34 103 -36 3 -2
-34 -83 -43 -93 -3 -3 -338 -33 -341 -29 -7 7 160 198 170 194 6 -3 56 -19
111 -36z m6779 -57 l46 -7 62 -124 c33 -68 59 -125 57 -127 -19 -19 -275 -104
-283 -95 -19 20 -225 334 -221 337 4 4 157 16 256 20 20 1 57 -1 83 -4z m-390
-116 c69 -74 203 -255 195 -262 -2 -2 -48 -14 -102 -28 l-99 -25 -75 101 c-42
56 -84 108 -93 116 -10 8 -36 43 -59 77 l-41 62 37 10 c55 14 125 29 145 30 9
1 50 -36 92 -81z m-6364 -33 c0 -4 -7 -19 -15 -35 -9 -17 -13 -30 -10 -30 4 0
3 -6 -2 -12 -4 -7 -8 -18 -9 -23 -1 -6 -17 -35 -36 -65 -20 -30 -54 -92 -77
-137 -23 -46 -47 -83 -54 -83 -6 0 -74 21 -149 46 -159 53 -151 28 -64 202 42
83 62 113 78 117 66 16 338 32 338 20z m4766 -50 c53 -83 109 -205 130 -281
17 -63 17 -68 1 -97 -20 -33 -16 -47 8 -27 21 17 25 11 32 -49 6 -49 5 -51
-19 -51 -23 0 -28 7 -49 80 -12 44 -26 80 -31 80 -11 0 -10 -17 7 -80 24 -91
33 -84 -132 -103 -209 -24 -197 -26 -218 31 -10 26 -63 143 -117 261 -54 118
-98 218 -98 221 0 4 44 12 98 19 186 24 295 41 300 46 3 3 16 5 29 5 17 0 32
-14 59 -55z m-3806 5 c36 -7 68 -14 72 -16 6 -4 -17 -71 -27 -83 -3 -3 -174
58 -184 65 -2 2 4 15 13 30 13 19 24 24 39 21 12 -3 51 -11 87 -17z m-1462
-107 c-28 -60 -52 -110 -53 -111 -4 -4 -217 73 -241 86 -21 12 -4 26 61 52 78
31 234 79 262 79 20 1 19 -5 -29 -106z m1120 73 c52 -14 96 -27 99 -29 2 -3
-21 -76 -51 -162 -31 -87 -56 -160 -56 -164 1 -3 20 35 44 84 23 50 61 120 85
157 l42 66 83 -28 c122 -41 126 -44 116 -80 -5 -17 -9 -34 -9 -38 -2 -16 -14
-47 -20 -52 -10 -7 -65 -124 -96 -202 -23 -59 -30 -67 -49 -63 -11 3 -64 12
-116 20 -52 9 -138 24 -190 35 -52 10 -116 21 -142 25 -32 4 -48 11 -48 20 0
8 23 71 51 140 27 69 47 129 44 135 -3 5 1 10 9 10 9 0 16 7 16 15 0 8 3 15 8
15 4 0 87 113 87 120 0 0 42 -11 93 -24z m1208 4 c35 0 54 -4 54 -12 0 -7 -39
-95 -87 -195 -100 -210 -79 -201 -169 -71 l-46 67 37 68 c21 37 51 88 68 112
26 39 32 42 59 37 17 -3 55 -6 84 -6z m2259 -72 c94 -107 265 -386 277 -453 3
-18 -8 -21 -132 -35 l-135 -15 -53 130 c-42 102 -142 391 -142 410 0 2 21 6
48 8 26 2 57 4 69 5 15 1 36 -14 68 -50z m1556 15 c54 -58 195 -261 187 -269
-5 -4 -104 -24 -123 -24 -7 0 -38 55 -70 123 -89 188 -88 184 -67 196 27 16
36 13 73 -26z m-3491 18 c0 -5 -10 -31 -21 -58 -41 -93 -69 -167 -69 -183 0
-9 -14 -38 -31 -66 -18 -27 -54 -94 -82 -149 -27 -55 -53 -105 -58 -111 -8
-10 -166 -1 -177 11 -11 11 38 95 55 95 13 0 14 3 5 12 -17 17 54 144 150 271
119 158 149 187 192 187 20 0 36 -4 36 -9z m-579 -346 c27 -14 63 -34 79 -44
l30 -18 -35 -73 -35 -73 -47 7 c-25 3 -61 6 -79 6 -26 0 -34 4 -34 17 0 21 59
203 66 203 3 0 27 -11 55 -25z m-727 -1035 c-34 -255 -45 -673 -23 -909 6 -62
9 -114 7 -116 -2 -1 -39 3 -83 10 -44 7 -115 16 -157 20 -68 6 -79 5 -84 -10
-9 -22 12 -35 59 -35 38 0 228 -26 258 -35 11 -4 20 -27 28 -77 6 -39 10 -73
7 -75 -2 -2 -46 4 -97 13 -56 10 -153 17 -241 18 -126 1 -147 3 -143 16 82
278 181 563 290 835 72 180 187 447 191 442 1 -1 -4 -45 -12 -97z m4723 -415
c59 -149 233 -648 233 -668 0 -3 -44 -10 -97 -17 -123 -15 -331 -68 -445 -113
-49 -19 -88 -34 -88 -32 0 1 14 35 31 76 130 314 208 642 225 953 l7 121 29
-65 c16 -36 63 -150 105 -255z m2097 -375 c103 -443 189 -928 251 -1407 l7
-53 -174 173 c-184 184 -320 300 -491 420 l-105 74 40 74 c23 41 42 76 44 78
4 4 195 -121 245 -160 38 -30 63 -36 74 -19 9 15 -33 50 -169 141 -66 46 -120
87 -119 93 1 6 33 83 71 171 108 249 184 493 222 715 l13 75 18 -70 c10 -38
43 -176 73 -305z m-2613 -205 c-6 -82 -16 -188 -22 -235 l-11 -86 -41 -22
c-22 -12 -42 -20 -44 -18 -3 2 9 52 26 111 31 107 74 314 88 422 8 54 8 56 11
18 2 -22 -1 -107 -7 -190z m782 -211 c10 -37 17 -68 15 -69 -2 -2 -50 -13
-108 -25 -280 -57 -543 -173 -840 -369 -63 -42 -120 -79 -126 -84 -7 -4 7 34
30 85 24 51 56 128 72 171 16 42 34 77 41 77 6 0 28 10 48 21 20 12 38 20 40
18 2 -3 -5 -49 -16 -104 -23 -119 -22 -115 -6 -115 7 0 45 66 85 146 l73 145
57 26 c95 42 254 92 359 113 133 26 140 27 203 29 l56 1 17 -66z m-6811 -622
l29 -43 -118 -123 c-65 -68 -119 -118 -121 -110 -3 12 47 335 69 442 l11 53
50 -88 c28 -48 64 -107 80 -131z m1236 -132 c20 -45 20 -146 1 -183 -14 -27
-14 -32 8 -75 37 -73 29 -162 -18 -213 -22 -23 -32 -48 -40 -97 -6 -37 -14
-70 -18 -73 -3 -4 -21 -10 -39 -14 l-34 -7 7 78 c14 174 60 530 81 628 6 29 7
29 21 10 8 -10 22 -35 31 -54z m-98 -15 c0 -31 -60 -478 -65 -483 -3 -3 -28
18 -55 46 -43 45 -55 52 -88 52 -90 0 -205 58 -237 120 -17 33 -13 132 6 138
5 2 15 10 23 17 11 11 73 33 311 109 48 16 105 16 105 1z m6411 -56 c96 -41
120 -56 125 -75 3 -13 10 -24 15 -24 24 0 4 -55 -43 -117 -113 -149 -239 -293
-257 -293 -29 0 -72 39 -92 84 -23 51 -24 78 -3 118 14 27 15 37 4 66 -21 58
-16 121 13 185 29 64 82 121 104 113 8 -3 68 -29 134 -57z m-6117 -139 c35
-21 52 -48 59 -95 8 -47 -11 -216 -27 -240 -13 -20 -149 -75 -159 -65 -3 3 2
52 9 110 8 58 19 144 24 192 6 47 13 94 16 102 8 22 40 20 78 -4z m5459 -57
c-12 -72 -45 -245 -59 -309 l-16 -72 -85 -21 c-47 -12 -87 -20 -89 -18 -2 2 7
59 21 128 13 68 29 161 36 207 11 70 16 83 33 87 79 19 105 23 132 24 29 1 31
-1 27 -26z m-303 -55 c-1 -55 -69 -380 -83 -394 -10 -10 -99 -6 -128 6 -31 13
-31 14 -25 64 4 28 21 110 39 181 l32 130 75 17 c41 9 78 17 83 17 4 1 7 -9 7
-21z m-4770 -606 c25 -12 39 -28 47 -53 27 -85 -17 -127 -161 -155 -84 -15
-98 -16 -133 -3 -101 39 -70 158 57 213 49 21 147 20 190 -2z m5504 -82 c63
-56 56 -134 -14 -170 -75 -38 -270 -53 -335 -26 -62 26 -59 96 6 158 50 48
111 66 221 67 83 1 89 0 122 -29z m-5754 -829 c45 -23 74 -72 66 -107 -4 -15
-21 -40 -37 -57 -30 -29 -32 -30 -102 -23 -58 5 -77 11 -98 32 -34 32 -41 69
-23 112 24 58 124 81 194 43z m5507 -50 c70 -32 91 -98 51 -158 -30 -42 -35
-44 -150 -50 l-96 -6 -31 44 c-41 55 -46 80 -27 117 34 66 164 93 253 53z"/>
<path d="M8955 7254 c-22 -14 -67 -38 -100 -54 -73 -34 -116 -77 -150 -151
-35 -77 -48 -159 -42 -259 6 -91 34 -193 47 -169 4 8 13 53 19 101 23 174 88
286 220 383 44 32 44 32 47 104 2 39 3 71 1 71 -1 0 -20 -12 -42 -26z"/>
<path d="M8434 5233 c-36 -48 -82 -110 -100 -139 -18 -28 -73 -108 -121 -177
-81 -116 -202 -296 -246 -367 -21 -34 -25 -107 -7 -142 10 -19 94 -157 148
-243 7 -11 24 -44 39 -74 14 -30 47 -89 73 -131 82 -133 110 -199 186 -429 41
-123 74 -225 74 -227 0 -2 -14 -4 -30 -4 -17 0 -36 -5 -43 -10 -7 -6 -20 -16
-30 -23 -12 -9 -21 -32 -26 -67 l-7 -55 -8 73 c-4 39 -12 72 -17 72 -13 0 -12
-44 15 -669 22 -510 26 -556 44 -580 26 -36 67 -54 106 -47 43 8 67 35 76 88
9 49 -3 386 -26 726 -8 129 -14 236 -11 238 5 5 38 -169 61 -321 31 -203 59
-596 71 -1000 7 -214 -8 -814 -24 -985 -5 -52 -14 -156 -21 -230 -6 -74 -20
-196 -30 -270 -9 -74 -14 -137 -9 -140 4 -3 9 -26 11 -50 l3 -45 106 -3 c94
-2 107 -1 113 15 4 10 11 67 17 128 5 60 14 151 19 200 6 50 18 173 26 275 8
102 19 244 25 315 33 421 -1 1374 -67 1845 -36 260 -74 414 -113 460 -24 29
-32 32 -103 37 -43 3 -78 10 -78 16 0 10 122 3 168 -9 17 -5 21 -3 17 9 -8 18
-48 27 -134 28 -57 1 -62 2 -36 10 17 5 58 7 93 4 62 -7 63 -6 58 17 -3 12
-12 61 -20 108 -17 103 -104 366 -153 464 -19 39 -56 105 -81 146 -25 41 -66
113 -90 160 -25 47 -67 120 -93 163 l-49 79 45 66 c25 37 79 117 120 177 41
61 103 150 136 200 56 82 93 132 233 312 69 88 62 93 -109 93 l-134 0 -67 -87z"/>
<path d="M10197 5300 c-42 -33 -52 -15 144 -252 47 -56 107 -134 134 -173 27
-38 71 -97 98 -130 42 -53 156 -215 196 -279 13 -21 12 -28 -17 -77 -18 -30
-61 -110 -95 -179 -34 -69 -83 -163 -109 -210 -90 -166 -186 -457 -174 -525 7
-33 9 -35 49 -36 23 0 62 -4 87 -8 39 -7 32 -9 -47 -10 l-93 -1 0 -32 c0 -25
-8 -39 -34 -60 -37 -30 -43 -50 -56 -193 -5 -49 -13 -119 -19 -155 -31 -199
-51 -403 -61 -629 -11 -262 -15 -1031 -6 -1073 3 -12 10 -106 16 -208 5 -102
16 -242 25 -310 13 -111 22 -189 56 -485 5 -44 16 -124 26 -178 l17 -98 105 3
105 3 10 45 c12 63 12 73 -17 270 -15 96 -36 258 -47 360 -11 102 -23 196 -26
209 -5 21 -11 145 -31 564 l-6 127 44 -20 c54 -24 87 -25 118 -4 60 42 63 113
27 684 -14 212 -33 537 -42 722 -17 336 -17 337 3 395 12 32 33 103 48 158 46
172 87 280 138 368 16 27 59 108 96 180 37 73 95 180 129 238 88 151 87 177
-24 321 -25 31 -65 87 -90 125 -68 101 -205 286 -325 435 l-105 133 -110 3
c-100 2 -113 1 -137 -18z"/>
</g>
</svg>
